<?xml version="1.0" encoding="UTF-8" standalone="no"?>
<svg xmlns="http://www.w3.org/2000/svg" version="1.1" height="96.8mm" width="75.2mm" viewBox="0 0 75.2 96.8">
	<g fill="#0a4" stroke="none">
		<title>Apple, by donchico, converted by Adam Stanislav</title>

		<path id="apple" d="M66.025391 7.3085938C65.235903 7.3290938 64.066781 7.4423456 62.550781 7.7910156C61.132081 8.1163456 59.496909 8.6282638 57.599609 9.4335938C54.552909 10.728264 51.235087 12.583572 47.429688 15.326172C44.321688 17.564872 41.083122 20.256831 37.732422 23.519531C35.951682 25.251817 34.143657 27.159271 32.355469 29.210938C31.405466 28.716966 30.417469 28.285792 29.386719 27.955078C27.398719 27.313678 25.272066 27.010306 23.134766 27.128906C20.884066 27.256906 18.656347 27.865691 16.623047 28.900391C13.339047 30.569691 10.238206 32.770416 7.6289062 35.541016C5.3289063 37.985016 3.441965 40.86455 2.140625 44.03125C1.713965 45.07125 1.3514044 46.140516 1.0527344 47.228516C0.47406737 49.332516 0.13782325 51.488625 0.03515625 53.640625C-0.12751075 57.046025 0.27399512 60.431044 1.1113281 63.652344C2.9939981 70.868344 6.9885019 77.241256 11.951172 82.222656C17.984472 88.291956 25.458516 92.329394 32.978516 94.496094C36.901116 96.202794 41.040709 97.197109 45.162109 97.037109C48.764709 96.895809 52.20045 95.804184 55.09375 94.021484C58.14445 92.132184 60.586144 89.561422 62.464844 86.857422C64.659544 83.705422 66.199669 80.296831 67.292969 77.019531C68.580969 73.160831 69.297178 69.360397 69.642578 65.841797C70.046578 61.729797 69.946697 57.975513 69.529297 54.632812C69.026697 50.591512 68.083547 47.342384 66.935547 44.708984C65.764847 42.019684 64.468566 40.233003 63.447266 39.095703C62.439266 37.974403 61.774187 37.545378 61.742188 37.580078C61.682187 37.645378 62.255325 38.171656 63.140625 39.347656C64.047325 40.551656 65.183403 42.331253 66.220703 45.001953C67.234103 47.616553 68.036381 50.789906 68.425781 54.753906C68.744381 58.029906 68.756503 61.692613 68.283203 65.695312C67.876503 69.120613 67.113894 72.800366 65.808594 76.509766C64.697894 79.660366 63.175341 82.909981 61.056641 85.863281C59.243341 88.387281 56.940812 90.764566 54.132812 92.447266C51.492813 94.039266 48.35375 95.000356 45.09375 95.097656C41.30305 95.215056 37.429828 94.224731 33.673828 92.582031C26.433828 90.432731 19.248094 86.510006 13.496094 80.691406C8.8000938 75.927406 5.0180606 69.873097 3.2753906 63.091797C2.4967206 60.069097 2.1232969 56.906 2.2792969 53.75C2.3766269 51.7566 2.6873731 49.762919 3.2207031 47.824219C3.4953731 46.821519 3.8273731 45.839466 4.2207031 44.884766C5.4100431 41.982166 7.1464356 39.327519 9.2597656 37.074219C11.657066 34.512819 14.551513 32.458253 17.632812 30.876953C19.392812 29.976953 21.327672 29.439472 23.263672 29.326172C25.108972 29.212772 26.970656 29.47525 28.722656 30.03125C29.475909 30.271031 30.205386 30.569173 30.914062 30.908203C30.43303 31.488643 29.951197 32.065714 29.476562 32.669922C27.413862 35.295322 25.333741 38.231909 23.619141 41.474609C22.972441 42.698609 22.365972 43.996394 21.888672 45.371094C21.517972 46.424394 21.216812 47.568503 21.132812 48.783203C21.058113 49.688503 21.158028 50.699509 21.611328 51.662109C21.819328 52.083509 22.103731 52.467575 22.457031 52.796875C22.830431 53.136875 23.252059 53.399431 23.693359 53.582031C24.820059 54.034031 25.985947 54.107531 27.060547 54.019531C28.653947 53.910131 30.187875 53.538219 31.671875 53.074219C33.905175 52.395519 36.18035 51.367309 38.09375 49.724609C39.49905 48.514009 40.644797 46.911156 41.216797 45.035156C41.718197 43.332456 41.717334 41.5218 41.302734 39.8125C40.866734 38.0165 40.038144 36.345881 38.964844 34.863281C37.577059 32.941096 35.79635 31.286962 33.755859 30C35.416068 28.047393 37.094469 26.217096 38.75 24.544922C41.9953 21.268922 45.123606 18.552784 48.128906 16.271484C51.818206 13.474084 54.988941 11.565081 57.931641 10.175781C59.760941 9.3117813 61.322759 8.7392206 62.693359 8.3378906C65.600059 7.4872206 67.227309 7.5260956 67.224609 7.3847656C67.223959 7.3607656 66.814878 7.2880937 66.025391 7.3085938zM32.359375 31.677734C34.281626 32.832268 35.96037 34.347761 37.242188 36.111328C38.180887 37.408628 38.904972 38.825241 39.263672 40.306641C39.599672 41.697241 39.622375 43.147919 39.234375 44.449219C38.826375 45.886619 37.899212 47.180613 36.757812 48.195312C35.173812 49.605913 33.143431 50.5221 31.082031 51.1875C29.671431 51.6328 28.291828 51.987338 26.923828 52.085938C25.997128 52.137937 25.123081 52.123106 24.425781 51.816406C24.163081 51.707106 23.926188 51.567184 23.742188 51.396484C23.563487 51.237884 23.414181 51.036406 23.300781 50.816406C23.018181 50.304406 22.970887 49.612484 22.992188 48.896484C23.038887 47.925784 23.297741 46.936937 23.619141 45.960938C24.039141 44.699637 24.595219 43.476875 25.199219 42.296875C26.801819 39.168875 28.790744 36.285081 30.777344 33.675781C31.299069 32.991328 31.828883 32.333067 32.359375 31.677734z"/>
		<path id="leaf" d="M35.268 20.164C34.964 20.148 34.8133 17.6347 34.8053 13.2333C35.0267 11.5293 35.512 9.38267 36.6267 7.276C36.6267 7.276 36.6267 7.276 36.6267 7.276C37.6013 5.456 39.192 3.62533 41.4573 2.46C42.728 1.82267 44.0693 1.41867 45.4453 1.116C47.0413 0.758667 48.6733 0.526667 50.3747 0.36C53.9027 0.0146667 57.5187 -0.052 61.4013 0.0346667C64.42 0.437333 67.4933 0.864 70.6773 1.31333C72.2707 1.53867 73.8693 1.76533 75.4213 1.98533C74.4853 5.38 73.5827 8.616 72.6773 11.752C71.4187 14.3227 70.0227 16.6747 68.3707 18.78C68.3707 18.78 68.3707 18.78 68.3707 18.78C66.672 20.9707 64.6893 22.7813 62.3213 23.8773C58.9507 25.392 55.756 26.188 53.0733 26.5707C51.1773 26.844 49.576 26.8867 48.1987 26.7773C45.3467 26.556 44.0333 25.6533 44.1027 25.4653C44.1827 25.248 45.6227 25.628 48.2093 25.456C49.5067 25.3667 50.9507 25.1533 52.724 24.728C55.2253 24.1253 58.1653 23.1653 61.224 21.592C63.0547 20.6707 64.588 19.0627 66.1 17.0467C66.1 17.0467 66.1 17.0467 66.1 17.0467C67.5213 15.1253 68.724 12.9573 69.86 10.532C71.124 8.08 72.4373 5.6 73.8267 3.00267C72.4347 3.02667 70.9907 3.052 69.5667 3.076C66.7093 3.124 63.9627 3.164 61.252 3.18667C57.452 3.05733 53.9947 3.04267 50.6173 3.272C48.984 3.384 47.4613 3.54267 45.996 3.81067C44.716 4.05067 43.5787 4.32133 42.5707 4.77733C40.816 5.54 39.4413 6.94533 38.52 8.38C38.52 8.38 38.52 8.38 38.52 8.38C37.448 10.0253 36.8387 11.8987 36.4547 13.4307C35.988 17.7 35.572 20.18 35.268 20.164Z"/>
	</g>
</svg>
